<?xml version="1.0" encoding="UTF-8" standalone="no"?>
<!-- Generator: Adobe Illustrator 18.1.0, SVG Export Plug-In . SVG Version: 6.00 Build 0)  -->
<svg id="Layer_1" xmlns="http://www.w3.org/2000/svg" xml:space="preserve" viewBox="0 0 343 65.2" version="1.1" y="0px" x="0px" xmlns:xlink="http://www.w3.org/1999/xlink" enable-background="new 0 0 343 65.2">
	<path d="m80.7 59.6h-3l2.3-3.6 0.7 3.6zm-6.1 2.8h1.2l1.2-1.9h3.8l0.4 1.9h1.1l-1.7-7.7h-1.1l-4.9 7.7z" fill="#004B85"/>
	<path d="m91.1 57c-0.5-0.2-1-0.3-1.5-0.3-0.9 0-2.1 0.5-2.1 1.6 0 1.4 1.9 1.6 1.9 2.5 0 0.6-0.6 0.9-1.2 0.9-0.5 0-0.9-0.2-1.3-0.3l-0.2 0.9c0.4 0.1 0.7 0.3 1.6 0.3s2.1-0.4 2.1-1.8c0-1.6-1.9-1.6-1.9-2.6 0-0.6 0.6-0.7 1-0.7s0.8 0.1 1.1 0.3l0.5-0.8z" fill="#004B85"/>
	<path d="m93.3 59.1c0.2-0.8 0.9-1.6 1.7-1.6s1.2 0.5 1.2 1.1v0.4l-2.9 0.1zm3.2 2.3c-0.5 0.2-1.1 0.3-1.6 0.3-1 0-1.7-0.3-1.7-1.5v-0.4h3.9c0.1-0.3 0.1-0.6 0.1-1 0-1.3-0.8-2.1-2.1-2.1-2 0-3.1 1.8-3.1 3.3 0 2 1.2 2.5 2.6 2.5 0.6 0 1.1-0.1 1.7-0.2l0.2-0.9z" fill="#004B85"/>
	<path d="m98.5 62.4h1l0.6-2.8c0.1-0.7 0.8-2.1 2-2.1 0.1 0 0.2 0 0.4 0.1l0.2-0.9c-0.2-0.1-0.4-0.1-0.5-0.1-1 0-1.6 0.5-1.9 1l0.2-0.9h-1c0 0.3-0.1 0.6-0.2 0.9l-0.8 4.8z" fill="#004B85"/>
	<polygon points="104.5 62.4 105.7 62.4 108.9 56.8 107.8 56.8 105.3 61.3 105.3 61.3 104.7 56.8 103.6 56.8" fill="#004B85"/>
	<path d="m109.3 62.4h1l1.2-5.6h-1l-1.2 5.6zm2.8-8h-1.2l-0.2 1.2h1.2l0.2-1.2z" fill="#004B85"/>
	<path d="m117.3 56.9c-0.4-0.1-0.9-0.2-1.5-0.2-1.9 0-3.1 1.6-3.1 3.5 0 1.5 1 2.3 2.5 2.3 0.4 0 0.7 0 1.1-0.1l0.2-1c-0.3 0.1-0.8 0.3-1.1 0.3-1 0-1.5-0.6-1.5-1.7 0-1.4 0.8-2.5 2.2-2.5 0.3 0 0.6 0.1 1 0.3l0.2-0.9z" fill="#004B85"/>
	<path d="m119.4 59.1c0.2-0.8 0.9-1.6 1.7-1.6s1.2 0.5 1.2 1.1v0.4l-2.9 0.1zm3.2 2.3c-0.5 0.2-1.1 0.3-1.6 0.3-1 0-1.7-0.3-1.7-1.5v-0.4h3.9c0.1-0.3 0.1-0.6 0.1-1 0-1.3-0.8-2.1-2.1-2.1-2 0-3.1 1.8-3.1 3.3 0 2 1.2 2.5 2.6 2.5 0.6 0 1.1-0.1 1.7-0.2l0.2-0.9z" fill="#004B85"/>
	<path d="m128.2 60c0 1.7 1 2.5 2.5 2.5 2 0 3.1-1.5 3.1-3.4 0-1.5-1-2.4-2.5-2.4-1.9 0-3.1 1.5-3.1 3.3zm1.1 0.1c0-1.2 0.7-2.6 2.1-2.6 0.9 0 1.4 0.8 1.4 1.6 0 1.3-0.9 2.6-2 2.6-1 0-1.5-0.7-1.5-1.6z" fill="#004B85"/>
	<path d="m135.9 62.4h1l1-4.8h1.5l0.2-0.8h-1.5l0.1-0.5c0.1-0.7 0.4-1.4 1.3-1.4 0.1 0 0.4 0.1 0.5 0.1l0.2-0.8c-0.3-0.1-0.5-0.1-0.8-0.1-1.6 0-2 1.3-2.2 2.2l-0.1 0.5h-1.4l-0.2 0.8h1.3l-0.9 4.8z" fill="#004B85"/>
	<path d="m143.8 57.6h1.2l-0.5 2.3c-0.1 0.3-0.2 1-0.2 1.3 0 0.6 0.4 1.2 1.3 1.2 0.3 0 0.8 0 1-0.1l0.2-0.9c-0.2 0.1-0.5 0.1-0.7 0.1-0.5 0-0.7-0.2-0.7-0.6 0-0.2 0.1-0.8 0.2-1.1l0.5-2.4h1.5l0.2-0.8h-1.5l0.4-1.7-1.1 0.4-0.3 1.3h-1.3l-0.2 1z" fill="#004B85"/>
	<path d="m148.2 62.4h1l0.6-2.8c0.1-0.7 0.8-2.1 2-2.1 0.6 0 1 0.4 1 1 0 0.1 0 0.3-0.1 0.5l-0.7 3.4h1l0.6-3c0.1-0.3 0.1-0.7 0.1-1 0-1.2-0.8-1.8-1.9-1.8-0.7 0-1.4 0.3-1.8 0.8l0.7-3.3h-1l-1.5 8.3z" fill="#004B85"/>
	<path d="m156.8 59.1c0.2-0.8 0.9-1.6 1.7-1.6s1.2 0.5 1.2 1.1v0.4l-2.9 0.1zm3.1 2.3c-0.5 0.2-1.1 0.3-1.6 0.3-1 0-1.7-0.3-1.7-1.5v-0.4h3.9c0.1-0.3 0.1-0.6 0.1-1 0-1.3-0.8-2.1-2.1-2.1-2 0-3.1 1.8-3.1 3.3 0 2 1.2 2.5 2.6 2.5 0.6 0 1.1-0.1 1.7-0.2l0.2-0.9z" fill="#004B85"/>
	<polygon points="165.5 62.4 166.6 62.4 168.1 55.8 168.1 55.8 169.2 62.4 170.2 62.4 174.2 55.8 174.2 55.8 172.8 62.4 173.9 62.4 175.5 54.7 173.7 54.7 170 61 169 54.7 167.3 54.7" fill="#004B85"/>
	<path d="m176.4 62.4h1l1.2-5.6h-1l-1.2 5.6zm2.8-8h-1.2l-0.2 1.2h1.2l0.2-1.2z" fill="#004B85"/>
	<path d="m179.8 62.4h1l0.6-2.8c0.1-0.7 0.8-2.1 2-2.1 0.6 0 1 0.4 1 1 0 0.1 0 0.3-0.1 0.5l-0.7 3.4h1l0.6-3c0.1-0.3 0.1-0.7 0.1-1 0-1.2-0.8-1.8-1.9-1.8-1 0-1.6 0.5-1.9 1l0.2-0.9h-1c0 0.3-0.1 0.6-0.2 0.9l-0.7 4.8z" fill="#004B85"/>
	<path d="m187 62.4h1l1.2-5.6h-1l-1.2 5.6zm2.8-8h-1.2l-0.2 1.2h1.2l0.2-1.2z" fill="#004B85"/>
	<path d="m194.4 57c-0.5-0.2-1-0.3-1.5-0.3-0.9 0-2.1 0.5-2.1 1.6 0 1.4 1.9 1.6 1.9 2.5 0 0.6-0.6 0.9-1.2 0.9-0.5 0-0.9-0.2-1.3-0.3l-0.2 0.9c0.4 0.1 0.7 0.3 1.6 0.3s2.1-0.4 2.1-1.8c0-1.6-1.9-1.6-1.9-2.6 0-0.6 0.6-0.7 1-0.7s0.8 0.1 1.1 0.3l0.5-0.8z" fill="#004B85"/>
	<path d="m195.5 57.6h1.2l-0.5 2.3c-0.1 0.3-0.2 1-0.2 1.3 0 0.6 0.4 1.2 1.3 1.2 0.3 0 0.8 0 1-0.1l0.2-0.9c-0.2 0.1-0.5 0.1-0.7 0.1-0.5 0-0.7-0.2-0.7-0.6 0-0.2 0.1-0.8 0.2-1.1l0.5-2.4h1.5l0.2-0.8h-1.5l0.4-1.7-1.1 0.4-0.3 1.3h-1.3l-0.2 1z" fill="#004B85"/>
	<path d="m199.9 62.4h1l0.6-2.8c0.1-0.7 0.8-2.1 2-2.1 0.1 0 0.2 0 0.4 0.1l0.2-0.9c-0.2-0.1-0.4-0.1-0.5-0.1-1 0-1.6 0.5-1.9 1l0.2-0.9h-1c0 0.3-0.1 0.6-0.2 0.9l-0.8 4.8z" fill="#004B85"/>
	<path d="m203.9 64.8c0.3 0.1 0.5 0.1 0.8 0.1 1 0 1.4-0.5 1.9-1.4l3.8-6.7h-1.1l-2.4 4.5-0.6-4.5h-1.1l0.9 5.9c-0.4 0.9-0.9 1.3-1.5 1.3-0.2 0-0.4-0.1-0.5-0.1l-0.2 0.9z" fill="#004B85"/>
	<path d="m214.3 60c0 1.7 1 2.5 2.5 2.5 2 0 3.1-1.5 3.1-3.4 0-1.5-1-2.4-2.5-2.4-2 0-3.1 1.5-3.1 3.3zm1.1 0.1c0-1.2 0.7-2.6 2.1-2.6 0.9 0 1.4 0.8 1.4 1.6 0 1.3-0.9 2.6-2 2.6s-1.5-0.7-1.5-1.6z" fill="#004B85"/>
	<path d="m221.9 62.4h1l1-4.8h1.5l0.2-0.8h-1.5l0.1-0.5c0.1-0.7 0.4-1.4 1.3-1.4 0.1 0 0.4 0.1 0.5 0.1l0.2-0.8c-0.3-0.1-0.5-0.1-0.8-0.1-1.6 0-2 1.3-2.2 2.2l-0.1 0.5h-1.4l-0.2 0.8h1.3l-0.9 4.8z" fill="#004B85"/>
	<path d="m234.7 55c-0.6-0.2-1.2-0.4-1.8-0.4-1.3 0-2.5 0.8-2.5 2.2 0 2.1 2.6 1.9 2.6 3.4 0 0.6-0.5 1.4-1.7 1.4-0.5 0-1.2-0.2-1.6-0.5l-0.4 1c0.6 0.2 1.3 0.4 2.1 0.4 1.8 0 2.6-1.3 2.6-2.5 0-2-2.6-2-2.6-3.3 0-0.9 0.8-1.2 1.5-1.2 0.6 0 1 0.2 1.4 0.4l0.4-0.9z" fill="#004B85"/>
	<path d="m235.6 60c0 1.7 1 2.5 2.5 2.5 2 0 3.1-1.5 3.1-3.4 0-1.5-1-2.4-2.5-2.4-2 0-3.1 1.5-3.1 3.3zm1.1 0.1c0-1.2 0.7-2.6 2.1-2.6 0.9 0 1.4 0.8 1.4 1.6 0 1.3-0.9 2.6-2 2.6-1 0-1.5-0.7-1.5-1.6z" fill="#004B85"/>
	<path d="m247.3 56.9c-0.4-0.1-0.9-0.2-1.4-0.2-1.9 0-3.1 1.6-3.1 3.5 0 1.5 1 2.3 2.5 2.3 0.4 0 0.7 0 1.1-0.1l0.2-1c-0.3 0.1-0.8 0.3-1.1 0.3-1 0-1.5-0.6-1.5-1.7 0-1.4 0.8-2.5 2.2-2.5 0.3 0 0.6 0.1 1 0.3l0.1-0.9z" fill="#004B85"/>
	<path d="m248 62.4h1l1.2-5.6h-1l-1.2 5.6zm2.8-8h-1.2l-0.2 1.2h1.2l0.2-1.2z" fill="#004B85"/>
	<path d="m252.5 58c0.5-0.3 1.1-0.5 1.7-0.5 0.8 0 1.3 0.3 1.3 1.1 0 0.1 0 0.3-0.1 0.4h-0.7c-1.9 0-3.3 0.5-3.3 2 0 1.1 0.8 1.5 1.8 1.5 0.7 0 1.5-0.4 1.8-1.1-0.1 0.3-0.1 0.7-0.2 0.9h1c0.1-1 0.4-2 0.6-3.1 0.1-0.3 0.1-0.6 0.1-0.9 0-1.3-1.1-1.8-2.2-1.8-0.4 0-1.1 0.1-1.6 0.3l-0.2 1.2zm0.9 3.7c-0.5 0-0.9-0.3-0.9-0.8 0-1 1.2-1.2 2-1.2h0.8c-0.2 1-0.9 2-1.9 2z" fill="#004B85"/>
	<polygon points="258.1 62.4 259.1 62.4 260.9 54.2 259.9 54.2" fill="#004B85"/>
	<path d="m265.1 62.4h2.3c3.2 0 4.9-1.8 4.9-4.6 0-1.7-1.2-3.1-3.9-3.1h-1.7l-1.6 7.7zm2.6-6.7h0.6c2.2 0 2.8 0.9 2.8 2.3 0 2.1-1.4 3.5-3.5 3.5h-1.2l1.3-5.8z" fill="#004B85"/>
	<path d="m274.8 59.1c0.2-0.8 0.9-1.6 1.7-1.6s1.2 0.5 1.2 1.1v0.4l-2.9 0.1zm3.2 2.3c-0.5 0.2-1.1 0.3-1.6 0.3-1 0-1.7-0.3-1.7-1.5v-0.4h3.9c0.1-0.3 0.1-0.6 0.1-1 0-1.3-0.8-2.1-2.1-2.1-2 0-3.1 1.8-3.1 3.3 0 2 1.2 2.5 2.6 2.5 0.6 0 1.1-0.1 1.7-0.2l0.2-0.9z" fill="#004B85"/>
	<polygon points="281.3 62.4 282.5 62.4 285.7 56.8 284.6 56.8 282.1 61.3 282.1 61.3 281.5 56.8 280.4 56.8" fill="#004B85"/>
	<path d="m287.3 59.1c0.2-0.8 0.9-1.6 1.7-1.6s1.2 0.5 1.2 1.1v0.4l-2.9 0.1zm3.2 2.3c-0.5 0.2-1.1 0.3-1.6 0.3-1 0-1.7-0.3-1.7-1.5v-0.4h3.9c0.1-0.3 0.1-0.6 0.1-1 0-1.3-0.8-2.1-2.1-2.1-2 0-3.1 1.8-3.1 3.3 0 2 1.2 2.5 2.6 2.5 0.6 0 1.1-0.1 1.7-0.2l0.2-0.9z" fill="#004B85"/>
	<polygon points="292.6 62.4 293.6 62.4 295.4 54.2 294.3 54.2" fill="#004B85"/>
	<path d="m296.2 60c0 1.7 1 2.5 2.5 2.5 2 0 3.1-1.5 3.1-3.4 0-1.5-1-2.4-2.5-2.4-2 0-3.1 1.5-3.1 3.3zm1.1 0.1c0-1.2 0.7-2.6 2.1-2.6 0.9 0 1.4 0.8 1.4 1.6 0 1.3-0.9 2.6-2 2.6s-1.5-0.7-1.5-1.6z" fill="#004B85"/>
	<path d="m302.6 64.7h1l0.7-3.1c0.3 0.6 0.8 1 1.8 1 1.9 0 2.8-1.7 2.8-3.7 0-1.2-0.7-2.1-2-2.1-0.8 0-1.6 0.3-2 1l0.2-0.9h-1c-0.1 0.6-0.2 1.2-0.3 1.9l-1.2 5.9zm2-4.5c0-1.4 0.8-2.7 2-2.7 0.7 0 1.3 0.4 1.3 1.4 0 1.4-0.7 2.8-1.9 2.8-0.9 0-1.4-0.7-1.4-1.5z" fill="#004B85"/>
	<path d="m310.4 62.4h1l0.6-2.8c0.2-0.9 0.8-2.1 1.8-2.1 0.5 0 0.8 0.4 0.8 0.8 0 0.1 0 0.3-0.1 0.5l-0.7 3.5h1l0.6-2.8c0.2-0.9 0.8-2.1 1.8-2.1 0.5 0 0.8 0.4 0.8 0.8 0 0.1 0 0.3-0.1 0.5l-0.7 3.5h1l0.6-3.1c0.1-0.4 0.2-0.8 0.2-1.2 0-0.9-0.6-1.5-1.6-1.5-0.9 0-1.4 0.3-2 1-0.2-0.7-0.8-1-1.5-1s-1.4 0.3-1.8 0.9l0.1-0.8h-1c0 0.2-0.1 0.4-0.1 0.6l-0.7 5.3z" fill="#004B85"/>
	<path d="m322 59.1c0.2-0.8 0.9-1.6 1.7-1.6s1.2 0.5 1.2 1.1v0.4l-2.9 0.1zm3.1 2.3c-0.5 0.2-1.1 0.3-1.6 0.3-1 0-1.7-0.3-1.7-1.5v-0.4h3.9c0.1-0.3 0.1-0.6 0.1-1 0-1.3-0.8-2.1-2.1-2.1-2 0-3.1 1.8-3.1 3.3 0 2 1.2 2.5 2.6 2.5 0.6 0 1.1-0.1 1.7-0.2l0.2-0.9z" fill="#004B85"/>
	<path d="m327.1 62.4h1l0.6-2.8c0.1-0.7 0.8-2.1 2-2.1 0.6 0 1 0.4 1 1 0 0.1 0 0.3-0.1 0.5l-0.7 3.4h1l0.6-3c0.1-0.3 0.1-0.7 0.1-1 0-1.2-0.8-1.8-1.9-1.8-1 0-1.6 0.5-1.9 1l0.2-0.9h-1c0 0.3-0.1 0.6-0.2 0.9l-0.7 4.8z" fill="#004B85"/>
	<path d="m334.6 57.6h1.2l-0.5 2.3c-0.1 0.3-0.2 1-0.2 1.3 0 0.6 0.4 1.2 1.3 1.2 0.3 0 0.8 0 1-0.1l0.2-0.9c-0.2 0.1-0.5 0.1-0.7 0.1-0.5 0-0.7-0.2-0.7-0.6 0-0.2 0.1-0.8 0.2-1.1l0.5-2.4h1.5l0.2-0.8h-1.6l0.4-1.7-1.1 0.4-0.3 1.3h-1.3l-0.1 1z" fill="#004B85"/>
	<path d="m28 40.1c-0.1 1.6-0.1 2.6-1.2 3.7-1.3 1.3-3 1.7-5.8 0.7-10-3.1-20.6-10.7-20-22.6 0.7-11.5 10-18.7 20.8-21.5 2.3-0.6 4.5 0.3 5.5 2.3 0.6 1.2 1 3.7-0.8 5.3-2.1 1.8-5.4 2.5-7.1 4.6-2.8 3.5-1.8 6.9-0.8 8.9 2.4 4.2 7.3 4.1 11.8 4.7 2.2 0.3 3.5 0.5 4.5 2.2 1 1.6 0.8 3.7-0.5 5.2-1.6 1.8-5.3 1.6-6.1 3.1-0.5 1.1-0.3 2.1-0.3 3.4z" fill="#004B85"/>
	<path d="m34.7 5.2c0.1-1.6 0.1-2.6 1.2-3.7 1.3-1.3 3-1.7 5.8-0.7 10 3.1 20.6 10.6 20 22.6-0.6 11.5-10 18.7-20.8 21.5-2.3 0.6-4.5-0.3-5.5-2.3-0.6-1.2-1-3.7 0.8-5.3 2.1-1.8 5.4-2.5 7.1-4.6 2.8-3.5 1.8-6.9 0.8-8.9-2.4-4.2-7.3-4.1-11.8-4.7-2.2-0.3-3.5-0.5-4.5-2.2-1-1.6-0.8-3.7 0.5-5.2 1.6-1.8 5.3-1.6 6.1-3.1 0.5-1.1 0.3-2.1 0.3-3.4z" fill="#97BE0D"/>
	<polygon points="75.2 43.3 76.9 43.3 76.9 37.9 82.6 37.9 82.6 43.3 84.3 43.3 84.3 31.4 82.6 31.4 82.6 36.4 76.9 36.4 76.9 31.4 75.2 31.4" fill="#004B85"/>
	<path d="m87.5 39c0 2.5 1.8 4.6 4.4 4.6s4.4-2.1 4.4-4.6c0-2.6-1.8-4.6-4.4-4.6-2.7 0-4.4 1.9-4.4 4.6zm1.7 0c0-1.7 1-3.3 2.7-3.3s2.7 1.6 2.7 3.3c0 1.6-0.8 3.3-2.7 3.3-1.9-0.1-2.7-1.8-2.7-3.3z" fill="#004B85"/>
	<path d="m103.8 34.6h-2.3v-2.5l-1.6 0.5v2h-2v1.3h2v5.1c0 1.7 1 2.5 2.7 2.5 0.5 0 1-0.1 1.4-0.2v-1.4c-0.2 0.2-0.6 0.3-1.1 0.3-0.7 0-1.3-0.5-1.3-1.6v-4.8h2.3l-0.1-1.2z" fill="#004B85"/>
	<path d="m106 39c0 2.5 1.8 4.6 4.4 4.6s4.4-2.1 4.4-4.6c0-2.6-1.8-4.6-4.4-4.6s-4.4 1.9-4.4 4.6zm1.7 0c0-1.7 1-3.3 2.7-3.3s2.7 1.6 2.7 3.3c0 1.6-0.8 3.3-2.7 3.3-1.8-0.1-2.7-1.8-2.7-3.3z" fill="#004B85"/>
	<path d="m121.9 43.3h1.8l1.2-3h5.8l1.2 3h1.9l-5-11.9h-1.8l-5.1 11.9zm8.3-4.4h-4.7l2.4-5.9 2.3 5.9z" fill="#004B85"/>
	<polygon points="136.2 43.3 137.8 43.3 137.8 38.8 141.7 43.3 144 43.3 139.4 38.5 143.5 34.6 141.3 34.6 137.8 38.1 137.8 30.5 136.2 30.5" fill="#004B85"/>
	<path d="m156.7 43.3h1.6v-4c0-2.2 0.9-3.5 2.4-3.5 0.3 0 0.6 0 0.9 0.2v-1.4c-0.3-0.1-0.6-0.1-1.1-0.1-0.9 0-1.8 0.6-2.3 1.6v-1.3h-1.5v8.5z" fill="#004B85"/>
	<path d="m164.6 36.6c0.6-0.5 1.6-0.9 2.5-0.9 1.6 0 2.1 0.8 2.1 2.3h-1.7c-1.7 0-4 0.7-4 2.9 0 1.9 1.3 2.7 3.2 2.7 1.5 0 2.3-0.8 2.7-1.3v1.1h1.5c0-0.3-0.1-0.7-0.1-1.7v-3.7c0-2.4-1-3.6-3.5-3.6-1.1 0-2.1 0.3-2.9 0.8l0.2 1.4zm4.6 3.3c0 1.3-0.8 2.3-2.4 2.3-0.7 0-1.6-0.5-1.6-1.4 0-1.5 2.1-1.7 3-1.7h1v0.8z" fill="#004B85"/>
	<path d="m174.3 43.3h1.6v-4c0-2.1 0.8-3.6 2.6-3.6 1.4 0.1 1.8 1.1 1.8 3.1v4.5h1.6v-5.2c0-2.3-1-3.7-3.3-3.7-1.2 0-2.4 0.6-2.8 1.6v-1.4h-1.6l0.1 8.7z" fill="#004B85"/>
	<path d="m193.2 34.6h-1.5v1.3c-0.5-0.9-1.3-1.5-2.9-1.5-2.6 0-3.9 2.4-3.9 4.6 0 2.3 1.2 4.3 3.7 4.3 1.1 0 2.2-0.4 2.9-1.3v0.9c0 1.8-1 3-2.7 3-1.2 0-1.9-0.2-3.1-0.8l-0.2 1.5c1.4 0.5 2.2 0.6 3.1 0.6 3.1 0 4.5-1.5 4.5-4.2l0.1-8.4zm-4.2 7.4c-1.5 0-2.4-1.4-2.4-3.1 0-1.5 0.8-3.2 2.4-3.2 1.7 0 2.5 1.6 2.5 3.4 0.1 1.6-0.9 2.9-2.5 2.9z" fill="#004B85"/>
	<path d="m197.2 36.6c0.6-0.5 1.6-0.9 2.5-0.9 1.6 0 2.1 0.8 2.1 2.3h-1.7c-1.7 0-4 0.7-4 2.9 0 1.9 1.3 2.7 3.2 2.7 1.5 0 2.3-0.8 2.7-1.3v1.1h1.5c0-0.3-0.1-0.7-0.1-1.7v-3.7c0-2.4-1-3.6-3.5-3.6-1.1 0-2.1 0.3-2.9 0.8l0.2 1.4zm4.7 3.3c0 1.3-0.8 2.3-2.4 2.3-0.7 0-1.6-0.5-1.6-1.4 0-1.5 2.1-1.7 3-1.7h1v0.8z" fill="#004B85"/>
	<path d="m145 39c0 2.5 1.8 4.6 4.4 4.6s4.4-2.1 4.4-4.6c0-2.6-1.8-4.6-4.4-4.6s-4.4 1.9-4.4 4.6zm1.7 0c0-1.7 1-3.3 2.7-3.3s2.7 1.6 2.7 3.3c0 1.6-0.8 3.3-2.7 3.3-1.9-0.1-2.7-1.8-2.7-3.3z" fill="#004B85"/>
	<path d="m96 5.6v2.2l5.1-0.9v-0.5c0-3.3-1.7-4.2-6.1-4.2h-14.1c-4.7 0-6.1 0.9-6.1 4.5v2.1c0 3.6 1.5 4.5 6.1 4.5h15.4v4.4h-17.5v-2.3l-5.1 0.8v0.5c0 3.6 1.5 4.5 6.2 4.5h15.3c4.7 0 6.2-0.9 6.2-4.5v-2.6c0-3.6-1.5-4.5-6.2-4.5h-15.4v-4h16.2z" fill="#004B85"/>
	<polygon points="121.3 5.7 132.7 5.7 132.7 2.3 104.2 2.3 104.2 5.7 115.5 5.7 115.5 21.3 121.3 21.3" fill="#004B85"/>
	<path d="m142.3 2.3h-5.8v14.5c0 3.6 1.5 4.5 6.1 4.5h15.6c4.7 0 6.1-0.9 6.1-4.5v-14.5h-5.8v15.5h-16.4v-15.5h0.2z" fill="#004B85"/>
	<path d="m171.5 21.3h14.5c4.4 0 7.8-0.3 10.2-1.5 3.5-1.6 5.5-4.6 5.5-8.2 0-5.9-4.9-9.4-14.2-9.4h-15.9v19.1h-0.1zm5.8-3.6v-12h10.2c5.4 0 8.2 2.1 8.2 5.9 0 4.7-3.6 6.1-10.9 6.1h-7.5z" fill="#004B85"/>
	<polygon points="213.8 21.3 219.6 21.3 219.6 12.7 232.4 2.3 225.6 2.3 217.1 9.6 208.6 2.3 200.9 2.3 213.8 12.8" fill="#004B85"/>
	<polygon points="235.3 21.3 259.5 21.3 259.5 17.7 241 17.7 241 2.3 235.3 2.3" fill="#97BE0D"/>
	<polygon points="263.3 21.3 269 21.3 269 2.3 263.3 2.3" fill="#97BE0D"/>
	<path d="m275.8 21.3h5.2v-10.3c0-0.6 0-1.5-0.2-3 0.7 0.6 1.3 1.1 2.1 1.5l18.1 11.7h3.9v-19h-5.2v10c0 0.6 0.1 1.7 0.2 3.3-0.9-0.8-1.8-1.4-2.8-2.1l-17.4-11.1h-3.9v19z" fill="#97BE0D"/>
	<polygon points="311.7 21.3 317.5 21.3 317.5 12.9 332.3 21.3 341.5 21.3 323.2 11.2 339.5 2.3 331.2 2.3 317.5 10.2 317.5 2.3 311.7 2.3" fill="#97BE0D"/>
</svg>
