<?xml version="1.0" encoding="utf-8"?>
<!-- Generator: Adobe Illustrator 27.7.0, SVG Export Plug-In . SVG Version: 6.00 Build 0)  -->
<svg version="1.1" id="Layer_1" xmlns="http://www.w3.org/2000/svg" xmlns:xlink="http://www.w3.org/1999/xlink" x="0px" y="0px"
	 viewBox="0 0 405.9 60.9" style="enable-background:new 0 0 405.9 60.9;" xml:space="preserve">
<style type="text/css">
	.st0{fill:#FFFFFF;}
</style>
<g>
	<path class="st0" d="M3,52l0.1-7.6c0-2,0-5.8-0.1-7.4l0.8-0.2l14.7,17V45c0-2-0.1-6.1-0.3-7.7c1.2,0,2.4,0,3.5-0.2
		c-0.1,0.9-0.2,3.5-0.3,4.7l-0.2,13.4c0,1.2,0,3.8,0.1,4.7l-0.8,0.2L6,43.4v11.6c0,1.2,0,3.7,0.1,4.6H2.6C2.8,58.1,2.9,54,3,52"/>
	<path class="st0" d="M35.7,50.8c-0.3-2.4-1.3-3.7-3.5-3.7c-2.4,0-3.8,1.7-4.3,4L35.7,50.8z M36.5,52.9l-8.7,0.3
		c0.2,3,1.7,4.4,4.6,4.4c2.2,0,3.9-1,5.3-2.2l-0.1,3c-1.6,1.1-3.4,1.7-5.5,1.7c-4.9,0-7.2-3.5-7.2-7.4c0-4.6,2.9-8.2,7.4-8.2
		c4.3,0,6.1,3.2,6.1,7.2L36.5,52.9z"/>
	<path class="st0" d="M42.9,54.6l-1.5-4.1c-0.7-1.9-1.5-4-2.1-5.4l3.2-0.4l3.3,10.1l1.4-4.1c0.8-2.2,1.4-4.2,1.9-5.8l2.1-0.2l3.6,10
		l1.3-4.1c0.4-1.2,1.3-4.1,1.7-5.7c1.1,0,2.2,0,3.1-0.1l-5.2,14.9L53.8,60c-0.5-1.7-1.2-3.8-2-6.1l-1.7-4.5l-3.6,10.4L44.6,60
		C44.3,58.5,43.6,56.5,42.9,54.6"/>
	<path class="st0" d="M85.7,37.7L72,57c1.2,0,3,0,4.3,0c3.2,0,6.6,0,8.7-0.1c-0.2,0.9-0.2,1.8-0.3,2.8c-1.8-0.1-5.4-0.2-8.2-0.2
		c-3.5,0-6.6,0-8.8,0.2l-0.6-0.6l13.7-19.3c-1.4,0-2.5,0-4.1,0c-3.1,0-5.8,0-8.2,0.1c0.1-0.8,0.1-1.8,0.1-2.8
		c2.8,0.1,4.3,0.2,8.1,0.2c3.8,0,6.4-0.1,8.4-0.2L85.7,37.7z"/>
	<path class="st0" d="M97.2,50.8c-0.3-2.4-1.3-3.7-3.5-3.7c-2.4,0-3.8,1.7-4.3,4L97.2,50.8z M98,52.9l-8.7,0.3
		c0.2,3,1.7,4.4,4.6,4.4c2.2,0,3.9-1,5.3-2.2l-0.1,3c-1.6,1.1-3.4,1.7-5.5,1.7c-4.9,0-7.2-3.5-7.2-7.4c0-4.6,2.9-8.2,7.4-8.2
		c4.3,0,6.1,3.2,6.1,7.2L98,52.9z"/>
	<path class="st0" d="M110.3,54.2l0.1-1.4c-0.4,0-0.9-0.1-1.3-0.1c-3.6,0-4.8,1.3-4.8,2.9c0,1.2,0.7,2.1,2.4,2.1
		C108.7,57.7,110.2,56.2,110.3,54.2 M101.4,55.8c0-3,2.6-4.9,7.7-4.9c0.4,0,0.8,0,1.2,0.1l0-0.5c0.1-2.2-0.9-3.3-3.1-3.3
		c-1.5,0-3,0.6-4,1.4l-0.7-2.5c1.6-0.9,3.3-1.4,5.2-1.4c3.8,0,5.6,2.3,5.5,5.7l-0.2,6.3c0,0.9,0.2,1.3,0.9,1.3
		c0.4,0,0.8-0.1,1.3-0.3l-0.3,2c-0.5,0.2-1.1,0.4-1.9,0.4c-1.2,0-2.3-0.8-2.5-2.5c-0.9,1.5-2.5,2.5-4.6,2.5
		C103.2,60.1,101.4,58.4,101.4,55.8"/>
	<path class="st0" d="M117.1,59.6c0.2-1.4,0.2-3.3,0.2-5.2V42.3c0-1.8-0.1-3.9-0.2-5.2c1.1-0.1,2.3-0.2,3.3-0.4
		c-0.1,0.8-0.1,2.4-0.1,3.5v16.4c0,1.1,0,2.3,0.1,3.1H117.1z"/>
	<path class="st0" d="M131.9,54.2l0.1-1.4c-0.4,0-0.9-0.1-1.3-0.1c-3.6,0-4.8,1.3-4.8,2.9c0,1.2,0.7,2.1,2.4,2.1
		C130.3,57.7,131.8,56.2,131.9,54.2 M123,55.8c0-3,2.6-4.9,7.7-4.9c0.4,0,0.8,0,1.2,0.1l0-0.5c0.1-2.2-0.9-3.3-3.1-3.3
		c-1.5,0-3,0.6-4,1.4l-0.7-2.5c1.6-0.9,3.3-1.4,5.2-1.4c3.8,0,5.6,2.3,5.5,5.7l-0.2,6.3c0,0.9,0.2,1.3,0.9,1.3
		c0.4,0,0.8-0.1,1.3-0.3l-0.3,2c-0.5,0.2-1.1,0.4-1.9,0.4c-1.2,0-2.3-0.8-2.5-2.5c-0.9,1.5-2.5,2.5-4.6,2.5
		C124.8,60.1,123,58.4,123,55.8"/>
	<path class="st0" d="M148.5,59.6c0.2-1.4,0.2-3.6,0.2-5.4v-3.8c0-1.8-0.6-3.3-2.5-3.3c-2.1,0-4.4,2.1-4.4,4v5.2
		c0,1.1,0,2.4,0.1,3.3h-3.2c0.1-1.4,0.2-3.6,0.2-5.4v-3.8c0-1.8-0.1-4-0.2-5.4c1.1,0,1.9-0.1,2.9-0.2l0.2,2.8c1.2-2,3.4-3.1,5.1-3.1
		c3.2,0,4.7,2,4.7,5.3v6.5c0,1.1,0.1,2.4,0.1,3.3H148.5z"/>
	<path class="st0" d="M157.4,52.6c0,3.4,2,5.1,4.4,5.1c1.6,0,3-0.9,3.7-2.2v-7c-0.8-0.8-1.9-1.3-3.3-1.3
		C159.1,47.1,157.4,49.6,157.4,52.6 M165.4,45.6l0-3.3c0-1.8,0-3.9-0.2-5.2c1.1-0.1,2.3-0.2,3.3-0.4c-0.1,0.8-0.1,2.4-0.1,3.5v14.2
		c0,1.8,0.1,3.8,0.2,5.3h-2.7l-0.2-1.6c-1,1.3-2.8,2.2-4.5,2.2c-4.1,0-6.7-3.2-6.7-7.3c0-4.7,3.2-8.4,7.6-8.4
		C163.3,44.6,164.6,45,165.4,45.6"/>
	<path class="st0" d="M189.3,60.2c-6.5,0-11.5-5.1-11.5-11.4c0-6.7,5.2-12,12.1-12c2.4,0,5.3,0.9,7.1,2l-0.9,2.9
		c-1.6-1.3-4.3-2-6.5-2c-5.2,0-8.6,3.8-8.6,8.9c0,5.7,3.9,8.9,8.6,8.9c1.8,0,3.2-0.3,4.5-1v-4c0-0.5,0-1.3-0.1-1.9c-1,0-0.7,0-1.7,0
		c-1.6,0-2.5,0-4.3,0.1c0.1-1.1,0.1-2.1,0-2.9c1.9,0.1,2.9,0.1,4.3,0.1c2.2,0,3.1,0,5-0.1c-0.2,1.2-0.2,5.7-0.2,7.7v2.5
		C195.5,59,193.2,60.2,189.3,60.2"/>
	<path class="st0" d="M207.5,47.1c-2.7,0-4.4,2.3-4.4,5.1c0,3.5,1.7,5.3,4.3,5.3c2.8,0,4.4-2.3,4.4-5.2
		C211.8,49,209.9,47.1,207.5,47.1 M207.2,60.2c-4.3,0-7.1-3.5-7.1-7.4c0-4.6,3-8.2,7.5-8.2c4.4,0,7.1,3.5,7.1,7.4
		C214.7,56.6,211.7,60.2,207.2,60.2"/>
	<path class="st0" d="M219.4,54.6l-1.8-4.1c-0.8-1.9-1.7-4-2.4-5.4l3.2-0.4l4.3,10.7l1.8-4.9c0.4-1.2,1.6-4.1,2-5.6
		c1.1,0,2.3,0,3.2-0.1l-6.2,14.9l-2,0.2C221.1,58.5,220.2,56.5,219.4,54.6"/>
	<path class="st0" d="M241.1,50.8c-0.3-2.4-1.3-3.7-3.5-3.7c-2.4,0-3.8,1.7-4.3,4L241.1,50.8z M241.9,52.9l-8.7,0.3
		c0.2,3,1.7,4.4,4.6,4.4c2.2,0,3.9-1,5.3-2.2l-0.1,3c-1.6,1.1-3.4,1.7-5.5,1.7c-4.9,0-7.2-3.5-7.2-7.4c0-4.6,2.9-8.2,7.4-8.2
		c4.3,0,6.1,3.2,6.1,7.2L241.9,52.9z"/>
	<path class="st0" d="M254.2,47.9c-2.1-0.4-4.7,0.7-4.7,3v5.5c0,1.1,0,2.4,0.1,3.3h-3.2c0.2-1.4,0.2-3.6,0.2-5.4v-4.4
		c0-1.8-0.1-3.3-0.3-4.6c1,0,2-0.2,2.9-0.4l0.3,2.9c1.2-2,2.8-2.8,5.1-3.1L254.2,47.9z"/>
	<path class="st0" d="M266.3,59.6c0.2-1.4,0.2-3.6,0.2-5.4v-3.8c0-1.8-0.6-3.3-2.5-3.3c-2.1,0-4.4,2.1-4.4,4v5.2
		c0,1.1,0,2.4,0.1,3.3h-3.2c0.1-1.4,0.2-3.6,0.2-5.4v-3.8c0-1.8-0.1-4-0.2-5.4c1.1,0,1.9-0.1,2.9-0.2l0.2,2.8c1.2-2,3.4-3.1,5.1-3.1
		c3.2,0,4.7,2,4.7,5.3v6.5c0,1.1,0.1,2.4,0.1,3.3H266.3z"/>
	<path class="st0" d="M291.5,59.6c0.2-1.4,0.2-3.6,0.2-5.4v-3.8c0-1.8-0.5-3.3-2.4-3.3c-2.1,0-3.9,1.6-3.9,3.6v5.7
		c0,1.1,0,2.4,0.1,3.3h-3.2c0.1-1.4,0.2-3.6,0.2-5.4v-3.8c0-1.8-0.4-3.3-2.4-3.3c-2.1,0-3.9,1.6-3.9,3.6v5.7c0,1.1,0,2.4,0.1,3.3
		h-3.3c0.2-1.4,0.2-3.6,0.2-5.4v-3.8c0-1.8-0.1-4-0.2-5.4c1.1,0,1.9-0.1,2.9-0.2l0.2,2.4c1.3-1.7,3.1-2.7,4.7-2.7
		c2.4,0,3.7,1.2,4.2,2.8c1-1.6,2.8-2.8,4.9-2.8c3.2,0,4.6,2,4.6,5.3v6.5c0,1.1,0,2.4,0.1,3.3H291.5z"/>
	<path class="st0" d="M308.3,50.8c-0.3-2.4-1.3-3.7-3.5-3.7c-2.4,0-3.8,1.7-4.3,4L308.3,50.8z M309.1,52.9l-8.7,0.3
		c0.2,3,1.7,4.4,4.6,4.4c2.2,0,3.9-1,5.3-2.2l-0.1,3c-1.6,1.1-3.4,1.7-5.5,1.7c-4.9,0-7.2-3.5-7.2-7.4c0-4.6,2.9-8.2,7.4-8.2
		c4.3,0,6.1,3.2,6.1,7.2L309.1,52.9z"/>
	<path class="st0" d="M323.3,59.6c0.2-1.4,0.2-3.6,0.2-5.4v-3.8c0-1.8-0.6-3.3-2.5-3.3c-2.1,0-4.4,2.1-4.4,4v5.2
		c0,1.1,0,2.4,0.1,3.3h-3.2c0.1-1.4,0.2-3.6,0.2-5.4v-3.8c0-1.8-0.1-4-0.2-5.4c1.1,0,1.9-0.1,2.9-0.2l0.2,2.8c1.2-2,3.4-3.1,5.1-3.1
		c3.2,0,4.7,2,4.7,5.3v6.5c0,1.1,0.1,2.4,0.1,3.3H323.3z"/>
	<path class="st0" d="M338,59.3c-0.7,0.5-1.9,0.8-2.9,0.8c-2.8,0-3.9-1.6-3.9-4.3v-8.3h-2.6l0.8-2.5h1.9l0.3-3.1l2.6-0.7v3.8h3.9
		c-0.1,0.7-0.1,1.4-0.1,2.5h-3.8v8.1c0,1.5,0.5,1.9,1.6,1.9c0.8,0,1.7-0.3,2.4-0.8L338,59.3z"/>
	<path class="st0" d="M20.2,5.7c-2.2,0-4.1-0.1-6.6-0.1c0,0.7,0,1.5,0,2v10.6c0,1.2,0,3.7,0.1,4.6H6.9c0.2-1.5,0.2-5.6,0.2-7.7v-4.7
		c0-1.2,0-3.1-0.1-4.8c-2.5,0-4.5,0-6.7,0.1c0.1-1.6,0.1-3.6,0.1-5.4c3.1,0.1,6.2,0.2,9.9,0.2c3.7,0,6.9-0.1,10.1-0.2
		C20.3,2,20.2,3.6,20.2,5.7"/>
	<path class="st0" d="M31.9,13.5c-0.1-1.7-0.8-2.7-2.3-2.7c-1.5,0-2.5,1.2-2.7,2.9L31.9,13.5z M35.9,15.9l-9,0.2
		c0.1,1.9,1.4,3,3.7,3c2.5,0,4.4-0.8,6-1.6l-0.1,4.1c-1.9,1.1-4.1,1.8-6.6,1.8c-5.8,0-8.7-3.6-8.7-8c0-5.1,3.6-8.5,8.6-8.5
		c5,0,7.3,3.4,7.3,7.7L35.9,15.9z"/>
	<path class="st0" d="M51.7,13.4v4.9c0,1.2,0,3.7,0.1,4.6h-6.7c0.2-1.5,0.2-5.6,0.2-7.7v-7c0-2-0.1-6.1-0.2-7.7c1.2,0,5.7,0,6.7-0.2
		c-0.1,0.9-0.1,3.5-0.1,4.7v4.8l2.8-3.8c1-1.3,2.9-3.9,4.2-5.6H66l-8.8,10.7l5.4,6.8c0.9,1.1,3,3.7,3.9,4.8l-7.4,0.5L51.7,13.4z"/>
	<path class="st0" d="M75.2,17.7l0.1-1.5c-0.3,0-0.5,0-0.9,0c-1.9,0-2.7,0.9-2.7,2c0,1.1,0.6,1.7,1.6,1.7
		C74.4,19.9,75.2,19.2,75.2,17.7 M80.2,4.5c-1.5,0-2.6-0.1-3.9-0.1h-4c-1.6,0-2.7,0-4,0.1c0.1-0.9,0.1-2.6,0.1-3.8
		c2,0.1,3.4,0.1,6.1,0.1c1.8,0,4,0,5.9-0.1C80.2,1.8,80.2,3.2,80.2,4.5 M66.2,19c0-3.1,2.6-5.2,7.9-5.2c0.3,0,0.7,0,1.2,0.1l0-0.4
		c0-1.3-0.6-2.1-2.4-2.1c-1.8,0-3.7,0.7-5,1.4l-0.7-4.1c1.7-1,4.4-1.8,6.9-1.8c4.8,0,6.8,2,6.8,6.4l-0.1,5.1c0,0.9,0.3,1.1,0.9,1.1
		c0.2,0,0.5-0.1,0.8-0.2l-0.2,3.4c-1,0.4-1.8,0.6-3,0.6c-1.9,0-3.3-0.6-3.8-2.5c-0.9,1.6-2.8,2.5-4.7,2.5
		C68.1,23.2,66.2,21.7,66.2,19"/>
	<path class="st0" d="M86.1,17.8l-1.5-4.1c-0.7-1.9-1.8-4.8-2.4-6.2c0.8,0,5-0.2,5.9-0.3l2.6,8.3l1.1-3.1l1.8-5.1l3.9-0.1l2.8,8.3
		l1-3.2c0.1-0.3,1.5-4.6,1.6-5c2.2,0,3.8,0,5.5-0.1l-6.1,15.6L98,23.1c-0.5-1.6-1.2-3.5-1.9-5.6l-0.8-2.4l-3,7.8L87.9,23
		C87.5,21.5,86.8,19.7,86.1,17.8"/>
	<path class="st0" d="M117.1,17.7l0.1-1.5c-0.3,0-0.5,0-0.9,0c-1.9,0-2.7,0.9-2.7,2c0,1.1,0.6,1.7,1.6,1.7
		C116.3,19.9,117,19.2,117.1,17.7 M108.1,19c0-3.1,2.6-5.2,7.9-5.2c0.3,0,0.7,0,1.2,0.1l0-0.4c0-1.3-0.6-2.1-2.4-2.1
		c-1.8,0-3.7,0.7-5,1.4l-0.7-4.1c1.7-1,4.4-1.8,6.9-1.8c4.8,0,6.8,2,6.8,6.4l-0.1,5.1c0,0.9,0.3,1.1,0.9,1.1c0.2,0,0.5-0.1,0.8-0.2
		l-0.2,3.4c-1,0.4-1.8,0.6-3,0.6c-1.9,0-3.3-0.6-3.8-2.5c-0.9,1.6-2.8,2.5-4.7,2.5C109.9,23.2,108.1,21.7,108.1,19"/>
	<path class="st0" d="M135.9,22.9c0.2-1.4,0.2-3.6,0.2-5.4v-3.3c0-1.8-0.3-2.7-1.7-2.7c-1.5,0-2.6,1.3-2.6,2.7v5.5
		c0,1.1,0,2.4,0.1,3.3h-6.4c0.1-1.4,0.2-3.6,0.2-5.4v-4.8c0-1.8-0.1-3.7-0.2-5.1c1.1,0,5-0.5,6-0.6l0.2,3.4c1.3-2.3,3.6-3.6,5.8-3.6
		c3.1,0,4.5,2.1,4.5,5.5v7.2c0,1.1,0.1,2.4,0.1,3.3H135.9z"/>
	<path class="st0" d="M152.6,17.7l0.1-1.5c-0.3,0-0.5,0-0.9,0c-1.9,0-2.7,0.9-2.7,2c0,1.1,0.6,1.7,1.6,1.7
		C151.8,19.9,152.5,19.2,152.6,17.7 M143.6,19c0-3.1,2.6-5.2,7.9-5.2c0.3,0,0.7,0,1.2,0.1l0-0.4c0-1.3-0.6-2.1-2.4-2.1
		c-1.8,0-3.7,0.7-5,1.4l-0.7-4.1c1.7-1,4.4-1.8,6.9-1.8c4.8,0,6.8,2,6.8,6.4l-0.1,5.1c0,0.9,0.3,1.1,0.9,1.1c0.2,0,0.5-0.1,0.8-0.2
		l-0.2,3.4c-1,0.4-1.8,0.6-3,0.6c-1.9,0-3.3-0.6-3.8-2.5c-0.9,1.6-2.8,2.5-4.7,2.5C145.4,23.2,143.6,21.7,143.6,19"/>
	<path class="st0" d="M172.1,22.5c-1,0.5-2.5,0.9-4,0.9c-3.5,0-5.8-1.2-5.8-5.8v-6.4h-2.6l0.7-4h1.9l0.3-3.1l5.7-2v5.1h3.9
		c-0.1,0.7-0.1,2.8-0.1,4h-3.8v5.7c0,1.7,0.6,2.1,1.6,2.1c0.8,0,1.6-0.3,2.2-0.7L172.1,22.5z"/>
	<path class="st0" d="M181.7,17.7l0.1-1.5c-0.3,0-0.5,0-0.9,0c-1.9,0-2.7,0.9-2.7,2c0,1.1,0.6,1.7,1.6,1.7
		C180.9,19.9,181.7,19.2,181.7,17.7 M172.8,19c0-3.1,2.6-5.2,7.9-5.2c0.3,0,0.7,0,1.2,0.1l0-0.4c0-1.3-0.6-2.1-2.4-2.1
		c-1.8,0-3.7,0.7-5,1.4l-0.7-4.1c1.7-1,4.4-1.8,6.9-1.8c4.8,0,6.8,2,6.8,6.4l-0.1,5.1c0,0.9,0.3,1.1,0.9,1.1c0.2,0,0.5-0.1,0.8-0.2
		l-0.2,3.4c-1,0.4-1.8,0.6-3,0.6c-1.9,0-3.3-0.6-3.8-2.5c-0.9,1.6-2.8,2.5-4.7,2.5C174.6,23.2,172.8,21.7,172.8,19"/>
	<path class="st0" d="M200.6,22.9c0.2-1.4,0.2-3.6,0.2-5.4v-3.3c0-1.8-0.3-2.7-1.7-2.7c-1.5,0-2.6,1.3-2.6,2.7v5.5
		c0,1.1,0,2.4,0.1,3.3h-6.4c0.1-1.4,0.2-3.6,0.2-5.4v-4.8c0-1.8-0.1-3.7-0.2-5.1c1.1,0,5-0.5,6-0.6l0.2,3.4c1.3-2.3,3.6-3.6,5.8-3.6
		c3.1,0,4.5,2.1,4.5,5.5v7.2c0,1.1,0.1,2.4,0.1,3.3H200.6z"/>
	<path class="st0" d="M216.2,10.5c-1.2,0-2,0.8-2,2.4c0,1.8,0.8,2.6,2,2.6c1.2,0,2-0.9,2-2.4C218.2,11.2,217.3,10.5,216.2,10.5
		 M213.7,24.2c-1.2,0.4-1.7,1-1.7,1.6c0,0.8,1,1.5,3.3,1.5c2.4,0,4-1,4-1.9c0-0.7-0.7-1-2.9-1.1h-0.7
		C215.1,24.3,214.4,24.2,213.7,24.2 M216.1,18.6c-1,0-1.9-0.1-2.7-0.3c-0.5,0.3-0.7,0.6-0.7,0.9c0,0.5,0.7,0.8,3.8,0.8h0.7
		c4.5,0,7.4,1.1,7.4,4c0,3.3-3.8,6.4-9.8,6.4c-4.8,0-7.2-1.7-7.2-3.9c0-1.6,1.3-2.7,3.1-3.3c-1.2-0.5-2-1.5-2-2.6
		c0-1.2,0.9-2.4,2.5-3.3c-1.5-1-2.3-2.4-2.3-4.2c0-3.6,3.1-6.3,7.6-6.3c1,0,2,0.2,2.8,0.4c0.2-2.7,1.7-4.1,5.2-3.7l-0.2,4.2
		c-1.7-0.4-2.5-0.2-2.9,0.7c1.4,1.1,2.2,2.6,2.2,4.3C223.6,16.3,220.4,18.6,216.1,18.6"/>
	<path class="st0" d="M233.6,17.7l0.1-1.5c-0.3,0-0.5,0-0.9,0c-1.9,0-2.7,0.9-2.7,2c0,1.1,0.6,1.7,1.6,1.7
		C232.8,19.9,233.5,19.2,233.6,17.7 M224.6,19c0-3.1,2.6-5.2,7.9-5.2c0.3,0,0.7,0,1.2,0.1l0-0.4c0-1.3-0.6-2.1-2.4-2.1
		c-1.8,0-3.7,0.7-5,1.4l-0.7-4.1c1.7-1,4.4-1.8,6.9-1.8c4.8,0,6.8,2,6.8,6.4l-0.1,5.1c0,0.9,0.3,1.1,0.9,1.1c0.2,0,0.5-0.1,0.8-0.2
		l-0.2,3.4c-1,0.4-1.8,0.6-3,0.6c-1.9,0-3.3-0.6-3.8-2.5c-0.9,1.6-2.8,2.5-4.7,2.5C226.4,23.2,224.6,21.7,224.6,19"/>
	<path class="st0" d="M255.7,11c-1.6,0-2.5,1.3-2.5,3.9c0,3.1,1,4.2,2.4,4.2c1.6,0,2.6-1.2,2.6-3.9C258.1,12.1,257,11,255.7,11
		 M255.4,23.4c-4.9,0-8.1-3.5-8.1-7.9c0-5.1,3.4-8.7,8.5-8.7c5,0,8.2,3.5,8.2,7.9C264,19.8,260.5,23.4,255.4,23.4"/>
	<path class="st0" d="M279.3,14.9h5.1L281.8,8L279.3,14.9z M276.8,6.6c1.1-2.6,1.8-4.3,2.4-6.1l5.1-0.3l7,16.1c0.8,2,2,4.5,2.9,6.5
		l-6.8,0.3l-1.7-4.3H278c-0.4,1-1.3,3.6-1.5,4h-6.6L276.8,6.6z"/>
	<path class="st0" d="M302.8,11c-1.6,0-2.5,1.3-2.5,3.9c0,3.1,1,4.2,2.4,4.2c1.6,0,2.6-1.2,2.6-3.9C305.2,12.1,304.1,11,302.8,11
		 M302.5,23.4c-4.9,0-8.1-3.5-8.1-7.9c0-5.1,3.4-8.7,8.5-8.7c5,0,8.2,3.5,8.2,7.9C311.1,19.8,307.6,23.4,302.5,23.4"/>
	<path class="st0" d="M323.6,22.5c-1,0.5-2.5,0.9-4,0.9c-3.5,0-5.8-1.2-5.8-5.8v-6.4h-2.6l0.7-4h1.9l0.3-3.1l5.7-2v5.1h3.9
		c-0.1,0.7-0.1,2.8-0.1,4h-3.8v5.7c0,1.7,0.6,2.1,1.6,2.1c0.8,0,1.6-0.3,2.2-0.7L323.6,22.5z"/>
	<path class="st0" d="M335.2,13.5c-0.1-1.7-0.8-2.7-2.3-2.7c-1.5,0-2.5,1.2-2.7,2.9L335.2,13.5z M339.2,15.9l-9,0.2
		c0.1,1.9,1.4,3,3.7,3c2.5,0,4.4-0.8,6-1.6l-0.1,4.1c-1.9,1.1-4.1,1.8-6.6,1.8c-5.8,0-8.7-3.6-8.7-8c0-5.1,3.6-8.5,8.6-8.5
		c5,0,7.3,3.4,7.3,7.7L339.2,15.9z"/>
	<path class="st0" d="M349.9,17.7l0.1-1.5c-0.3,0-0.5,0-0.9,0c-1.9,0-2.7,0.9-2.7,2c0,1.1,0.6,1.7,1.6,1.7
		C349.1,19.9,349.9,19.2,349.9,17.7 M340.9,19c0-3.1,2.6-5.2,7.9-5.2c0.3,0,0.7,0,1.2,0.1l0-0.4c0-1.3-0.6-2.1-2.4-2.1
		c-1.8,0-3.7,0.7-5,1.4l-0.7-4.1c1.7-1,4.4-1.8,6.9-1.8c4.8,0,6.8,2,6.8,6.4l-0.1,5.1c0,0.9,0.3,1.1,0.9,1.1c0.2,0,0.5-0.1,0.8-0.2
		l-0.2,3.4c-1,0.4-1.8,0.6-3,0.6c-1.9,0-3.3-0.6-3.8-2.5c-0.9,1.6-2.8,2.5-4.7,2.5C342.8,23.2,340.9,21.7,340.9,19"/>
	<path class="st0" d="M369.9,12.4c-2.7-0.3-5.2,0.3-5.2,3.3v3.9c0,1.1,0,2.4,0.1,3.3h-6.4c0.2-1.4,0.2-3.6,0.2-5.4v-4.9
		c0-1.8-0.1-3.6-0.2-4.9c1.1,0,5-0.5,6-0.6l0.3,3.9c0.9-2.3,2.8-3.8,5.6-4.1L369.9,12.4z"/>
	<path class="st0" d="M379,11c-1.6,0-2.5,1.3-2.5,3.9c0,3.1,1,4.2,2.4,4.2c1.6,0,2.6-1.2,2.6-3.9C381.4,12.1,380.3,11,379,11
		 M378.7,23.4c-4.9,0-8.1-3.5-8.1-7.9c0-5.1,3.4-8.7,8.5-8.7c5,0,8.2,3.5,8.2,7.9C387.3,19.8,383.8,23.4,378.7,23.4"/>
	<path class="st0" d="M396.9,17.7l0.1-1.5c-0.3,0-0.5,0-0.9,0c-1.9,0-2.7,0.9-2.7,2c0,1.1,0.6,1.7,1.6,1.7
		C396.1,19.9,396.8,19.2,396.9,17.7 M387.9,19c0-3.1,2.6-5.2,7.9-5.2c0.3,0,0.7,0,1.2,0.1l0-0.4c0-1.3-0.6-2.1-2.4-2.1
		c-1.8,0-3.7,0.7-5,1.4L389,8.7c1.7-1,4.4-1.8,6.9-1.8c4.8,0,6.8,2,6.8,6.4l-0.1,5.1c0,0.9,0.3,1.1,0.9,1.1c0.2,0,0.5-0.1,0.8-0.2
		l-0.2,3.4c-1,0.4-1.8,0.6-3,0.6c-1.9,0-3.3-0.6-3.8-2.5c-0.9,1.6-2.8,2.5-4.7,2.5C389.7,23.2,387.9,21.7,387.9,19"/>
</g>
</svg>
