<svg id="Layer_1" data-name="Layer 1" xmlns="http://www.w3.org/2000/svg" viewBox="0 0 19 19"><defs><style>.cls-1{fill:#fff;}</style></defs><title>Artboard 1</title><g id="Layer_13" data-name="Layer 13"><path class="cls-1" d="M18.92,10.77a1.29,1.29,0,0,1-1.29,1.29H12.06v5.57a1.29,1.29,0,0,1-1.29,1.29H8.2a1.29,1.29,0,0,1-1.29-1.29V12.06H1.34A1.29,1.29,0,0,1,.06,10.77V8.2A1.29,1.29,0,0,1,1.34,6.92H6.92V1.34A1.29,1.29,0,0,1,8.2.06h2.57a1.29,1.29,0,0,1,1.29,1.29V6.92h5.57A1.29,1.29,0,0,1,18.92,8.2Z"/></g></svg>