<?xml version="1.0" encoding="utf-8"?>
<!-- Generator: Adobe Illustrator 19.1.0, SVG Export Plug-In . SVG Version: 6.00 Build 0)  -->
<svg version="1.1" id="Layer_1" xmlns="http://www.w3.org/2000/svg" xmlns:xlink="http://www.w3.org/1999/xlink" x="0px" y="0px"
	 viewBox="0 0 19.03 19.029" enable-background="new 0 0 19.03 19.029" xml:space="preserve">
<g>
	<path fill="#FFFFFF" d="M17.566,19.029c-0.389,0-0.766-0.16-1.029-0.434l-3.923-3.911c-1.338,0.926-2.939,1.418-4.563,1.418
		C3.602,16.102,0,12.5,0,8.051S3.602,0,8.051,0s8.051,3.602,8.051,8.051c0,1.624-0.492,3.225-1.418,4.563l3.922,3.923
		c0.263,0.263,0.423,0.641,0.423,1.029C19.03,18.366,18.366,19.029,17.566,19.029z M8.051,2.928c-2.825,0-5.123,2.299-5.123,5.123
		s2.299,5.123,5.123,5.123s5.123-2.299,5.123-5.123S10.876,2.928,8.051,2.928z"/>
</g>
</svg>
