<svg width="48" height="48" viewBox="0 0 48 48" fill="none" xmlns="http://www.w3.org/2000/svg">
<path d="M24.0193 45.8404C36.1064 45.8404 45.9049 36.062 45.9049 23.9998C45.9049 11.9375 36.1064 2.15918 24.0193 2.15918C11.9323 2.15918 2.13379 11.9375 2.13379 23.9998C2.13379 36.062 11.9323 45.8404 24.0193 45.8404Z" fill="#3A5150"/>
<path d="M24.0202 43.5727C34.8522 43.5727 43.6332 34.8097 43.6332 24C43.6332 13.1903 34.8522 4.42725 24.0202 4.42725C13.1883 4.42725 4.40723 13.1903 4.40723 24C4.40723 34.8097 13.1883 43.5727 24.0202 43.5727Z" fill="white"/>
<path d="M34.3356 13.4789H24.0202V5.09766C13.5665 5.09766 5.0791 13.5578 5.0791 23.9999C5.0791 34.4419 13.5567 42.9021 24.0202 42.9021V36.1281C26.5003 36.1281 33.2784 36.1379 34.1676 36.1281C35.2545 36.1083 34.9185 35.2406 34.9185 35.2406C34.9185 35.2406 34.2269 33.5447 33.9502 32.9235C33.6736 32.3023 32.8337 32.4403 32.8337 32.4403H24.0301V31.1387H34.3455C34.9976 31.1387 35.5311 30.6063 35.5311 29.9555V14.6622C35.5213 14.0114 34.9877 13.4789 34.3356 13.4789ZM34.1577 29.2653C34.1577 29.5414 33.9305 29.7682 33.6538 29.7682H24.0202V14.8495H33.6538C33.9305 14.8495 34.1577 15.0763 34.1577 15.3524V29.2653Z" fill="#3A5150"/>
<path d="M23.4858 31.3359H21.9049C21.7962 31.3359 21.7073 31.2472 21.7073 31.1387C21.7073 31.0303 21.7962 30.9415 21.9049 30.9415H23.4858C23.5945 30.9415 23.6834 31.0303 23.6834 31.1387C23.6834 31.2472 23.5945 31.3359 23.4858 31.3359ZM20.818 31.3359H19.2371C19.1285 31.3359 19.0395 31.2472 19.0395 31.1387C19.0395 31.0303 19.1285 30.9415 19.2371 30.9415H20.818C20.9267 30.9415 21.0157 31.0303 21.0157 31.1387C21.0157 31.2472 20.9267 31.3359 20.818 31.3359ZM18.2491 31.3359H16.6682C16.5595 31.3359 16.4706 31.2472 16.4706 31.1387C16.4706 31.0303 16.5595 30.9415 16.6682 30.9415H18.2491C18.3578 30.9415 18.4467 31.0303 18.4467 31.1387C18.4467 31.2472 18.3578 31.3359 18.2491 31.3359ZM15.6801 31.3359H14.0992C13.9905 31.3359 13.9016 31.2472 13.9016 31.1387C13.9016 31.0303 13.9905 30.9415 14.0992 30.9415H15.6801C15.7888 30.9415 15.8777 31.0303 15.8777 31.1387C15.8777 31.2472 15.7888 31.3359 15.6801 31.3359ZM13.1112 31.3359C12.6073 31.3162 12.2021 30.8922 12.2021 30.3893V29.9259C12.2021 29.8174 12.2911 29.7287 12.3998 29.7287C12.5084 29.7287 12.5974 29.8174 12.5974 29.9259V30.3893C12.5974 30.6753 12.8345 30.9218 13.1112 30.9317C13.2199 30.9317 13.3088 31.0303 13.2989 31.1387C13.3088 31.2472 13.2199 31.3359 13.1112 31.3359ZM12.4096 28.8018C12.301 28.8018 12.212 28.7131 12.212 28.6046V26.9974C12.212 26.8889 12.301 26.8002 12.4096 26.8002C12.5183 26.8002 12.6073 26.8889 12.6073 26.9974V28.6046C12.6073 28.7131 12.5183 28.8018 12.4096 28.8018ZM12.4096 26.1001C12.301 26.1001 12.212 26.0114 12.212 25.9029V24.2957C12.212 24.1872 12.301 24.0985 12.4096 24.0985C12.5183 24.0985 12.6073 24.1872 12.6073 24.2957V25.9029C12.6073 26.0114 12.5183 26.1001 12.4096 26.1001ZM12.4096 23.2998C12.301 23.2998 12.212 23.211 12.212 23.1026V21.4953C12.212 21.3869 12.301 21.2981 12.4096 21.2981C12.5183 21.2981 12.6073 21.3869 12.6073 21.4953V23.1026C12.6073 23.211 12.5183 23.2998 12.4096 23.2998V23.2998ZM12.4096 20.4995C12.301 20.4995 12.212 20.4107 12.212 20.3022V18.695C12.212 18.5866 12.301 18.4978 12.4096 18.4978C12.5183 18.4978 12.6073 18.5866 12.6073 18.695V20.3022C12.6073 20.4107 12.5183 20.4995 12.4096 20.4995ZM12.4096 17.7977C12.301 17.7977 12.212 17.709 12.212 17.6005V15.9933C12.212 15.8848 12.301 15.7961 12.4096 15.7961C12.5183 15.7961 12.6073 15.8848 12.6073 15.9933V17.6005C12.6073 17.709 12.5183 17.7977 12.4096 17.7977ZM12.4096 14.8988C12.301 14.8988 12.212 14.8101 12.212 14.7016V14.4354C12.212 13.9128 12.627 13.4888 13.1408 13.4888H13.2989C13.4076 13.4888 13.4965 13.5775 13.4965 13.686C13.4965 13.7944 13.4076 13.8832 13.2989 13.8832H13.1408C12.8444 13.8832 12.6073 14.1297 12.6073 14.4255V14.6917C12.6073 14.8101 12.5183 14.8988 12.4096 14.8988ZM23.3771 13.893H21.7962C21.6875 13.893 21.5986 13.8043 21.5986 13.6958C21.5986 13.5874 21.6875 13.4986 21.7962 13.4986H23.3771C23.4858 13.4986 23.5747 13.5874 23.5747 13.6958C23.5747 13.8043 23.4858 13.893 23.3771 13.893ZM20.907 13.893H19.3261C19.2174 13.893 19.1285 13.8043 19.1285 13.6958C19.1285 13.5874 19.2174 13.4986 19.3261 13.4986H20.907C21.0157 13.4986 21.1046 13.5874 21.1046 13.6958C21.1046 13.8043 21.0157 13.893 20.907 13.893ZM18.338 13.893H16.7571C16.6484 13.893 16.5595 13.8043 16.5595 13.6958C16.5595 13.5874 16.6484 13.4986 16.7571 13.4986H18.338C18.4467 13.4986 18.5356 13.5874 18.5356 13.6958C18.5356 13.8043 18.4467 13.893 18.338 13.893ZM15.769 13.893H14.1882C14.0795 13.893 13.9905 13.8043 13.9905 13.6958C13.9905 13.5874 14.0795 13.4986 14.1882 13.4986H15.769C15.8777 13.4986 15.9667 13.5874 15.9667 13.6958C15.9667 13.8043 15.8777 13.893 15.769 13.893ZM24.8296 33.87L24.7703 33.2784C24.7604 33.2094 24.7011 33.1502 24.6221 33.1502H24.0095V34.0377H24.6814C24.7703 34.0278 24.8394 33.9489 24.8296 33.87ZM25.1754 33.308L25.2446 33.8898C25.2544 33.9686 25.3137 34.0179 25.3928 34.0179H26.6081C26.697 34.0179 26.7662 33.9391 26.7563 33.8503L26.6674 33.2686C26.6575 33.1897 26.5883 33.1404 26.5192 33.1404H25.3236C25.2347 33.1404 25.1655 33.2193 25.1754 33.308ZM27.1219 33.3179L27.2108 33.8996C27.2207 33.9686 27.2898 34.0278 27.359 34.0278H28.5644C28.6632 34.0278 28.7324 33.9391 28.7126 33.8405L28.5644 33.2587C28.5447 33.1897 28.4854 33.1404 28.4162 33.1404H27.2701C27.1713 33.1404 27.1021 33.2291 27.1219 33.3179V33.3179ZM29.0387 33.3474L29.1968 33.9095C29.2166 33.9785 29.2758 34.0278 29.3549 34.0278H30.5504C30.6591 34.0278 30.7283 33.9292 30.6987 33.8207L30.5307 33.2587C30.5109 33.1897 30.4516 33.1404 30.3825 33.1404H29.1869C29.0881 33.1404 29.0091 33.239 29.0387 33.3474V33.3474ZM30.9555 33.3672L31.1334 33.9095C31.1532 33.9785 31.2223 34.0278 31.2915 34.0278H32.5266C32.6451 34.0278 32.7242 33.9095 32.6847 33.801L32.4969 33.2587C32.4772 33.1897 32.408 33.1404 32.3388 33.1404H31.1136C30.9951 33.1404 30.916 33.2587 30.9555 33.3672V33.3672ZM31.331 34.5701L31.5681 35.2406C31.5879 35.2998 31.6472 35.3392 31.7065 35.3392H33.1293C33.2281 35.3392 33.2973 35.2308 33.2577 35.142L32.9514 34.4715C32.9317 34.4222 32.8724 34.3828 32.823 34.3828H31.4693C31.3705 34.3729 31.3014 34.4715 31.331 34.5701V34.5701ZM30.9061 34.4814L31.1235 35.142C31.1532 35.2406 31.0741 35.3294 30.9753 35.3294H24.0095V34.3729H30.7579C30.837 34.3729 30.8963 34.4222 30.9061 34.4814ZM14.9885 32.8446H14.6328C14.3462 32.8446 14.0795 33.0023 13.951 33.2587L13.7238 33.7024C13.6744 33.801 13.7139 33.9193 13.8127 33.9686C13.8423 33.9884 13.872 33.9884 13.9016 33.9884C13.9708 33.9884 14.0399 33.9489 14.0795 33.8799L14.3067 33.4362C14.3759 33.308 14.4944 33.239 14.6427 33.239H14.9984C15.107 33.239 15.196 33.1502 15.196 33.0418C15.196 32.9333 15.0972 32.8446 14.9885 32.8446V32.8446ZM17.7056 35.6153H16.2236C16.1149 35.6153 16.0259 35.7041 16.0259 35.8125C16.0259 35.921 16.1149 36.0097 16.2236 36.0097H17.7056C17.8143 36.0097 17.9033 35.921 17.9033 35.8125C17.9033 35.7041 17.8143 35.6153 17.7056 35.6153ZM21.9049 33.239H23.387C23.4957 33.239 23.5846 33.1502 23.5846 33.0418C23.5846 32.9333 23.4957 32.8446 23.387 32.8446H21.9049C21.7962 32.8446 21.7073 32.9333 21.7073 33.0418C21.7073 33.1502 21.7962 33.239 21.9049 33.239ZM14.8403 35.6153H13.8819C13.6546 35.6153 13.5064 35.4181 13.5064 35.2406C13.5064 35.1913 13.5163 35.142 13.536 35.1026C13.5756 35.004 13.5261 34.8856 13.4273 34.8462C13.3285 34.8068 13.21 34.8561 13.1704 34.9547C13.1309 35.0533 13.1112 35.1519 13.1112 35.2505C13.1112 35.6745 13.457 36.0196 13.8819 36.0196H14.8403C14.949 36.0196 15.0379 35.9308 15.0379 35.8224C15.0379 35.7139 14.949 35.6153 14.8403 35.6153V35.6153ZM20.571 35.6153H19.0889C18.9802 35.6153 18.8913 35.7041 18.8913 35.8125C18.8913 35.921 18.9802 36.0097 19.0889 36.0097H20.571C20.6797 36.0097 20.7686 35.921 20.7686 35.8125C20.7686 35.7041 20.6797 35.6153 20.571 35.6153ZM23.3376 35.6153H21.8555C21.7468 35.6153 21.6579 35.7041 21.6579 35.8125C21.6579 35.921 21.7468 36.0097 21.8555 36.0097H23.3376C23.4463 36.0097 23.5352 35.921 23.5352 35.8125C23.5352 35.7041 23.4463 35.6153 23.3376 35.6153ZM19.0395 33.239H20.5216C20.6303 33.239 20.7192 33.1502 20.7192 33.0418C20.7192 32.9333 20.6303 32.8446 20.5216 32.8446H19.0395C18.9308 32.8446 18.8419 32.9333 18.8419 33.0418C18.8419 33.1502 18.9308 33.239 19.0395 33.239ZM17.8539 32.8446H16.3718C16.2631 32.8446 16.1742 32.9333 16.1742 33.0418C16.1742 33.1502 16.2631 33.239 16.3718 33.239H17.8539C17.9625 33.239 18.0515 33.1502 18.0515 33.0418C18.0515 32.9333 17.9625 32.8446 17.8539 32.8446Z" fill="white"/>
</svg>
